<?xml version="1.0" encoding="utf-8"?>
<svg version="1.1" xmlns:xlink="http://www.w3.org/1999/xlink" width="36px" height="36px" xmlns="http://www.w3.org/2000/svg">
  <defs>
    <path d="M 0 0  L 36 0  L 36 36  L 0 36  Z " fill-rule="evenodd" fill="black" id="path1" />
    <clipPath id="clip2">
      <use xlink:href="#path1" />
    </clipPath>
    <filter x="-50.00%" y="-50.00%" width="200.00%" height="200.00%" filterUnits="objectBoundingBox" id="filter3">
      <feColorMatrix type="matrix" values="1 0 0 0 0  0 1 0 0 0  0 0 1 0 0  0 0 0 1 0  " in="SourceGraphic" />
    </filter>
    <mask fill="white" id="clip4">
      <path d="M 39.5 46.5  C 30.065 46.5  22.5 38.935  22.5 29.5  L 22.5 28.5  C 22.5 19.065  30.065 11.5  39.5 11.5  L 40.5 11.5  C 49.935 11.5  57.5 19.065  57.5 28.5  L 57.5 29.5  C 57.5 38.935  49.935 46.5  40.5 46.5  L 39.5 46.5  " fill-rule="evenodd" />
    </mask>
  </defs>
  <g transform="matrix(1 0 0 1 -22 -11 )">
    <g transform="matrix(1 0 0 1 22 11 )" clip-path="url(#clip2)" filter="url(#filter3)">
      <circle cx="18" cy="18" r="18" fill="white" />
      <path d="M18.0096 2C14.8451 1.99811 11.7511 2.93465 9.11882 4.69118C6.48659 6.44771 4.43434 8.94535 3.22159 11.8682C2.00885 14.7911 1.69007 18.008 2.30558 21.1121C2.92109 24.2161 4.44324 27.068 6.67954 29.3069C8.91585 31.5459 11.7659 33.0715 14.8692 33.6907C17.9725 34.3099 21.1898 33.995 24.1141 32.7857C27.0384 31.5765 29.5385 29.5272 31.2982 26.8971C33.0579 24.2669 33.9981 21.1741 34 18.0096C33.9891 13.7702 32.3015 9.70735 29.3056 6.70788C26.3097 3.70842 22.2489 2.01597 18.0096 2ZM18.035 33.1083C15.0425 33.1127 12.1159 32.229 9.62586 30.5692C7.13581 28.9094 5.19426 26.548 4.04702 23.7841C2.89979 21.0202 2.59846 17.978 3.1812 15.0428C3.76394 12.1075 5.20453 9.41116 7.32058 7.2951C9.43664 5.17905 12.133 3.73846 15.0683 3.15572C18.0035 2.57298 21.0457 2.87431 23.8096 4.02155C26.5735 5.16878 28.9349 7.11034 30.5947 9.60039C32.2545 12.0904 33.1382 15.017 33.1337 18.0096C33.1103 22.0068 31.5121 25.8336 28.6856 28.6601C25.8591 31.4866 22.0322 33.0849 18.035 33.1083Z" fill="#00803D" />
      <path d="M12.121 5.25795C12.121 11.4745 12.0987 17.6242 12.0987 23.793C11.5541 22.9299 10.5796 22.7006 9.69108 22.5637H4.5L4.86624 23.4076L9.67834 23.363C10.202 23.3432 10.7186 23.4885 11.1551 23.7782C11.5917 24.0679 11.9263 24.4875 12.1115 24.9777V26.3885C11.5541 25.5477 10.5987 25.3184 9.73567 25.207L5.69427 25.1847L6.18153 25.9586L9.71337 25.9108C10.2264 25.8989 10.7307 26.0454 11.1575 26.3303C11.5843 26.6152 11.913 27.0248 12.0987 27.5032V28.7516C11.6083 27.8853 10.7866 27.5477 9.73567 27.5223L7.3535 27.4777L8.19427 28.3407L9.80573 28.2962C11.328 28.4554 12.1433 29.3439 12.4236 30.914V30.9809C12.449 31.0286 12.449 31.0955 12.4745 31.1624L12.449 30.8662C12.4699 30.8238 12.4787 30.7764 12.4745 30.7293V30.7993L12.828 29.8089C13.0964 29.3434 13.4861 28.9595 13.9556 28.6982C14.425 28.4368 14.9566 28.3078 15.4936 28.3248H27.8726L28.6688 27.4777C23.7834 27.4777 20.3248 27.5 15.465 27.5C14.5096 27.6146 13.5541 27.8184 12.8917 28.5223V27.277C13.176 26.8526 13.5631 26.5071 14.0169 26.2726C14.4708 26.0382 14.9766 25.9225 15.4873 25.9363H29.8599L30.3981 25.0923C25.5127 25.0923 20.3248 25.1178 15.465 25.1178C14.5096 25.2293 13.5541 25.4363 12.8917 26.1401V24.7739C13.1754 24.3486 13.5623 24.0023 14.0162 23.7673C14.4701 23.5322 14.9763 23.4162 15.4873 23.4299H31.1943L31.5127 22.5891C26.6274 22.5891 20.3408 22.6083 15.4809 22.6083C14.5255 22.7229 13.5701 22.9267 12.9076 23.6369V4.82483L12.121 5.25795Z" fill="#00803D" />
      <path d="M14.739 19.9745H14.4778V19.5159H14.739V18.3885H15.9524C16.1197 18.3795 16.2872 18.4054 16.444 18.4646C16.6008 18.5238 16.7436 18.615 16.8632 18.7325C16.9915 18.8729 17.0901 19.0378 17.153 19.2173C17.216 19.3968 17.242 19.5872 17.2294 19.777C17.249 20.143 17.1359 20.5037 16.911 20.793C16.7931 20.9288 16.6458 21.0359 16.4802 21.106C16.3146 21.1761 16.1351 21.2074 15.9556 21.1974H14.739V19.9745ZM15.3759 19.5159H16.0129V19.9745H15.3759V20.6751H15.9173C16.0072 20.68 16.0971 20.6658 16.1811 20.6334C16.2651 20.601 16.3413 20.5512 16.4046 20.4872C16.5588 20.3061 16.6355 20.0716 16.618 19.8344C16.6357 19.5962 16.5741 19.3588 16.4428 19.1592C16.3643 19.0696 16.2656 19 16.1548 18.9563C16.044 18.9125 15.9244 18.8958 15.8059 18.9076H15.3759V19.5159Z" fill="#00803D" />
      <path d="M17.5668 18.3885H18.1847V19.465H19.3216V18.3885H19.9586V21.1974H19.3216V19.9841H18.1847V21.1974H17.5668V18.3885Z" fill="#00803D" />
      <path d="M22.7229 21.4618L22.3248 21.1083C22.1158 21.2211 21.8808 21.2771 21.6433 21.2707C21.453 21.2788 21.2632 21.2447 21.0876 21.1709C20.912 21.0972 20.7548 20.9855 20.6274 20.8439C20.3785 20.5591 20.2475 20.1901 20.2611 19.8121C20.2465 19.4262 20.3772 19.0489 20.6274 18.7548C20.7597 18.6189 20.9179 18.5109 21.0927 18.4371C21.2674 18.3634 21.4552 18.3254 21.6449 18.3254C21.8346 18.3254 22.0223 18.3634 22.1971 18.4371C22.3718 18.5109 22.5301 18.6189 22.6624 18.7548C22.9077 19.0486 23.0348 19.4233 23.0191 19.8057C23.031 20.185 22.899 20.5547 22.6497 20.8407L23.0032 21.1592L22.7229 21.4618ZM21.9172 20.1528L22.2356 20.4458C22.3571 20.2562 22.4171 20.0338 22.4076 19.8089C22.418 19.5738 22.3581 19.341 22.2356 19.1401C22.1668 19.0485 22.0776 18.9741 21.9751 18.9229C21.8725 18.8717 21.7595 18.845 21.6449 18.845C21.5303 18.845 21.4172 18.8717 21.3147 18.9229C21.2122 18.9741 21.123 19.0485 21.0541 19.1401C20.9317 19.341 20.8718 19.5738 20.8821 19.8089C20.8749 20.0336 20.9347 20.2553 21.0541 20.4458C21.119 20.5411 21.2072 20.6181 21.3104 20.6694C21.4136 20.7207 21.5282 20.7446 21.6433 20.7388H21.7866C21.8241 20.7368 21.8604 20.7247 21.8917 20.7038L21.6305 20.4713L21.9172 20.1528Z" fill="#00803D" />
      <path d="M25.3822 20.879C25.2852 21.006 25.1598 21.1085 25.016 21.1783C24.8879 21.236 24.7488 21.2654 24.6083 21.2643C24.418 21.2724 24.2282 21.2383 24.0526 21.1646C23.877 21.0908 23.7198 20.9791 23.5924 20.8376C23.3435 20.5527 23.2126 20.1837 23.2262 19.8057C23.2115 19.4198 23.3422 19.0425 23.5924 18.7484C23.7197 18.6056 23.8773 18.493 24.0535 18.4186C24.2298 18.3443 24.4204 18.31 24.6115 18.3184C24.8945 18.3119 25.1712 18.403 25.3949 18.5764C25.5096 18.6641 25.6045 18.7749 25.6736 18.9017C25.7427 19.0284 25.7845 19.1682 25.7962 19.3121H25.2039C25.184 19.1727 25.1116 19.0462 25.0014 18.9586C24.8913 18.8709 24.7518 18.8288 24.6115 18.8407C24.4961 18.835 24.3811 18.8593 24.2779 18.9112C24.1746 18.9631 24.0866 19.0408 24.0223 19.1369C23.8999 19.3378 23.84 19.5706 23.8504 19.8057C23.8431 20.0304 23.903 20.2522 24.0223 20.4426C24.0872 20.5379 24.1754 20.6149 24.2786 20.6662C24.3818 20.7175 24.4964 20.7414 24.6115 20.7356C24.6945 20.7454 24.7786 20.7378 24.8584 20.7131C24.9383 20.6884 25.012 20.6473 25.075 20.5924C25.138 20.5375 25.1888 20.4701 25.2242 20.3944C25.2595 20.3186 25.2786 20.2364 25.2803 20.1528H24.6433V19.6783H25.8249V21.1974H25.4427L25.3822 20.879Z" fill="#00803D" />
      <path d="M26.2388 18.3885H26.8758V19.465H28.0127V18.3885H28.6305V21.1974H27.9968V19.9841H26.8598V21.1974H26.2229L26.2388 18.3885Z" fill="#00803D" />
      <path d="M29.0701 18.3885H29.6847L30.8599 20.2739V18.3885H31.4395V21.1974H30.8153L29.6465 19.3153V21.1974H29.0701V18.3885Z" fill="#00803D" />
    </g>
    <path d="M 39 46.5  C 29.8425 46.5  22.5 39.1575  22.5 30  L 22.5 28  C 22.5 18.8425  29.8425 11.5  39 11.5  L 41 11.5  C 50.1575 11.5  57.5 18.8425  57.5 28  L 57.5 30  C 57.5 39.1575  50.1575 46.5  41 46.5  L 39 46.5  Z " stroke-width="1" stroke="#ffffff" fill="none" mask="url(#clip4)" />
  </g>
</svg>